<?xml version="1.0" encoding="UTF-8" standalone="no"?>
<svg
   xmlns:dc="http://purl.org/dc/elements/1.1/"
   xmlns:cc="http://creativecommons.org/ns#"
   xmlns:rdf="http://www.w3.org/1999/02/22-rdf-syntax-ns#"
   xmlns:svg="http://www.w3.org/2000/svg"
   xmlns="http://www.w3.org/2000/svg"
   xmlns:sodipodi="http://sodipodi.sourceforge.net/DTD/sodipodi-0.dtd"
   xmlns:inkscape="http://www.inkscape.org/namespaces/inkscape"
   id="Layer_1"
   data-name="Layer 1"
   width="15"
   height="15"
   viewBox="0 0 15 15"
   version="1.1"
   inkscape:version="0.91 r13725"
   sodipodi:docname="geolocate.svg">
  <metadata
     id="metadata10">
    <rdf:RDF>
      <cc:Work
         rdf:about="">
        <dc:format>image/svg+xml</dc:format>
        <dc:type
           rdf:resource="http://purl.org/dc/dcmitype/StillImage" />
      </cc:Work>
    </rdf:RDF>
  </metadata>
  <defs
     id="defs8" />
  <sodipodi:namedview
     pagecolor="#ffffff"
     bordercolor="#666666"
     borderopacity="1"
     objecttolerance="10"
     gridtolerance="10"
     guidetolerance="10"
     inkscape:pageopacity="0"
     inkscape:pageshadow="2"
     inkscape:window-width="1600"
     inkscape:window-height="837"
     id="namedview6"
     showgrid="false"
     inkscape:zoom="32"
     inkscape:cx="8.8939295"
     inkscape:cy="7.4105156"
     inkscape:window-x="-8"
     inkscape:window-y="-8"
     inkscape:window-maximized="1"
     inkscape:current-layer="Layer_1" />
  <title
     id="title3">marker-stroked-15</title>
  <path
     d="M 7.1074219 0 A 4.4524486 4.4524486 0 0 0 2.8554688 4.6445312 C 2.8554688 6.9331567 6.3069507 11.650314 7.1621094 12.695312 L 7.5136719 13.130859 L 8.03125 12.423828 C 9.796937 10.015674 12.144531 6.5895114 12.144531 4.6445312 C 12.150398 4.512698 12.150398 4.3818333 12.144531 4.25 A 4.4524486 4.4524486 0 0 0 7.4980469 0 C 7.3673855 -0.0058592633 7.2374972 -0.0058592633 7.1074219 0 z M 7.5 1.8378906 A 2.6342525 2.6858821 0 0 1 10.134766 4.5234375 A 2.6342525 2.6858821 0 0 1 7.5 7.2089844 A 2.6342525 2.6858821 0 0 1 4.8652344 4.5234375 A 2.6342525 2.6858821 0 0 1 7.5 1.8378906 z "
     id="Layer_7" />
  <path
     style="opacity:1;fill:none;fill-opacity:1;stroke:#000000;stroke-width:0.87252516;stroke-linecap:round;stroke-linejoin:round;stroke-miterlimit:4;stroke-dasharray:none;stroke-dashoffset:0;stroke-opacity:1"
     id="path4138"
     sodipodi:type="arc"
     sodipodi:cx="-12.663491"
     sodipodi:cy="7.6326509"
     sodipodi:rx="1.866146"
     sodipodi:ry="4.9214272"
     sodipodi:start="0.59970556"
     sodipodi:end="5.6022846"
     d="m -11.122984,10.410302 a 1.866146,4.9214272 0 0 1 -2.055427,1.952719 1.866146,4.9214272 0 0 1 -1.349689,-4.530627 1.866146,4.9214272 0 0 1 1.205905,-4.8043912 1.866146,4.9214272 0 0 1 2.10871,1.5066434"
     transform="matrix(0.01047686,-0.99994512,0.99999436,0.00335995,0,0)"
     sodipodi:open="true" />
</svg>
